{
  "accessors": [
    {
      "bufferView": 2,
      "componentType": 5126,
      "count": 16275,
      "max": [
        0.19023720920085907,
        0.376977801322937,
        0.2655388116836548
      ],
      "min": [
        -0.2313878983259201,
        -0.13633209466934204,
        -0.00123090879060328
      ],
      "type": "VEC3"
    },
    {
      "bufferView": 2,
      "byteOffset": 195300,
      "componentType": 5126,
      "count": 16275,
      "max": [
        0.9999542236328125,
        0.9996946454048157,
        1.0
      ],
      "min": [
        -0.9999541640281677,
        -0.9998993873596191,
        -1.0
      ],
      "type": "VEC3"
    },
    {
      "bufferView": 1,
      "componentType": 5126,
      "count": 16275,
      "max": [
        979490.5625,
        979528.875
      ],
      "min": [
        -979489.9375,
        -979528.0
      ],
      "type": "VEC2"
    },
    {
      "bufferView": 0,
      "componentType": 5125,
      "count": 67200,
      "type": "SCALAR"
    },
    {
      "bufferView": 2,
      "byteOffset": 390600,
      "componentType": 5126,
      "count": 3076,
      "max": [
        0.27545347809791565,
        0.38642990589141846,
        0.01052724476903677
      ],
      "min": [
        -0.2754535377025604,
        -0.16447719931602478,
        -0.031785376369953156
      ],
      "type": "VEC3"
    },
    {
      "bufferView": 2,
      "byteOffset": 427512,
      "componentType": 5126,
      "count": 3076,
      "max": [
        0.9951847195625305,
        0.9951847195625305,
        1.0
      ],
      "min": [
        -0.9903931617736816,
        -0.9951848387718201,
        -0.835189163684845
      ],
      "type": "VEC3"
    },
    {
      "bufferView": 1,
      "byteOffset": 130200,
      "componentType": 5126,
      "count": 3076,
      "max": [
        1.0000001192092896,
        0.9247662425041199
      ],
      "min": [
        0.0,
        0.0
      ],
      "type": "VEC2"
    },
    {
      "bufferView": 0,
      "byteOffset": 268800,
      "componentType": 5125,
      "count": 12423,
      "type": "SCALAR"
    }
  ],
  "asset": {
    "extras": {
      "author": "kuayarts (https://sketchfab.com/kuayarts)",
      "license": "CC-BY-4.0 (http://creativecommons.org/licenses/by/4.0/)",
      "source": "https://sketchfab.com/3d-models/jigglypuff-on-stage-piano-934ae11a65d14cc58b9f0a87376322b4",
      "title": "Jigglypuff on stage - Piano"
    },
    "generator": "Sketchfab-12.74.0",
    "version": "2.0"
  },
  "bufferViews": [
    {
      "buffer": 0,
      "byteLength": 318492,
      "name": "floatBufferViews",
      "target": 34963
    },
    {
      "buffer": 0,
      "byteLength": 154808,
      "byteOffset": 318492,
      "byteStride": 8,
      "name": "floatBufferViews",
      "target": 34962
    },
    {
      "buffer": 0,
      "byteLength": 464424,
      "byteOffset": 473300,
      "byteStride": 12,
      "name": "floatBufferViews",
      "target": 34962
    }
  ],
  "buffers": [
    {
      "byteLength": 937724,
      "uri": "scene.bin"
    }
  ],
  "extensionsUsed": [
    "KHR_materials_unlit"
  ],
  "images": [
    {
      "uri": "textures/MAT_Puff_baseColor.png"
    },
    {
      "uri": "textures/MAT_Floor_baseColor.png"
    }
  ],
  "materials": [
    {
      "doubleSided": true,
      "extensions": {
        "KHR_materials_unlit": {}
      },
      "name": "MAT_Puff",
      "pbrMetallicRoughness": {
        "baseColorTexture": {
          "index": 0
        },
        "metallicFactor": 0.0
      }
    },
    {
      "doubleSided": true,
      "extensions": {
        "KHR_materials_unlit": {}
      },
      "name": "MAT_Floor",
      "pbrMetallicRoughness": {
        "baseColorTexture": {
          "index": 1
        },
        "metallicFactor": 0.0
      }
    }
  ],
  "meshes": [
    {
      "name": "Cube.093_MAT_Puff_0",
      "primitives": [
        {
          "attributes": {
            "NORMAL": 1,
            "POSITION": 0,
            "TEXCOORD_0": 2
          },
          "indices": 3,
          "material": 0,
          "mode": 4
        }
      ]
    },
    {
      "name": "Circle_MAT_Floor_0",
      "primitives": [
        {
          "attributes": {
            "NORMAL": 5,
            "POSITION": 4,
            "TEXCOORD_0": 6
          },
          "indices": 7,
          "material": 1,
          "mode": 4
        }
      ]
    }
  ],
  "nodes": [
    {
      "children": [
        1
      ],
      "matrix": [
        1.0,
        0.0,
        0.0,
        0.0,
        0.0,
        2.220446049250313e-16,
        -1.0,
        0.0,
        0.0,
        1.0,
        2.220446049250313e-16,
        0.0,
        0.0,
        0.0,
        0.0,
        1.0
      ],
      "name": "Sketchfab_model"
    },
    {
      "children": [
        2
      ],
      "matrix": [
        0.009999999776482582,
        0.0,
        0.0,
        0.0,
        0.0,
        0.0,
        0.009999999776482582,
        0.0,
        0.0,
        -0.009999999776482582,
        0.0,
        0.0,
        0.0,
        0.0,
        0.0,
        1.0
      ],
      "name": "4e3ca29ddb0d418ba36475347293cfb4.fbx"
    },
    {
      "children": [
        3,
        5
      ],
      "name": "RootNode"
    },
    {
      "children": [
        4
      ],
      "matrix": [
        100.0,
        0.0,
        0.0,
        0.0,
        0.0,
        -1.629206793918314e-05,
        -99.99999999999868,
        0.0,
        0.0,
        99.99999999999868,
        -1.629206793918314e-05,
        0.0,
        0.0,
        0.0,
        0.0,
        1.0
      ],
      "name": "Cube.093"
    },
    {
      "mesh": 0,
      "name": "Cube.093_MAT_Puff_0"
    },
    {
      "children": [
        6
      ],
      "matrix": [
        100.0,
        0.0,
        0.0,
        0.0,
        0.0,
        -1.629206793918314e-05,
        -99.99999999999868,
        0.0,
        0.0,
        99.99999999999868,
        -1.629206793918314e-05,
        0.0,
        0.0,
        0.0,
        0.0,
        1.0
      ],
      "name": "Circle"
    },
    {
      "mesh": 1,
      "name": "Circle_MAT_Floor_0"
    }
  ],
  "samplers": [
    {
      "magFilter": 9729,
      "minFilter": 9987,
      "wrapS": 10497,
      "wrapT": 10497
    }
  ],
  "scene": 0,
  "scenes": [
    {
      "name": "Sketchfab_Scene",
      "nodes": [
        0
      ]
    }
  ],
  "textures": [
    {
      "sampler": 0,
      "source": 0
    },
    {
      "sampler": 0,
      "source": 1
    }
  ]
}
